<?xml version="1.0" encoding="UTF-8" standalone="no"?>
<svg width="20px" height="20px" viewBox="0 0 20 20" version="1.1" xmlns="http://www.w3.org/2000/svg" xmlns:xlink="http://www.w3.org/1999/xlink">
    <!-- Generator: Sketch 49.2 (51160) - http://www.bohemiancoding.com/sketch -->
    <title>Group</title>
    <desc>Created with Sketch.</desc>
    <defs></defs>
    <g id="Icon-Set" stroke="none" stroke-width="1" fill="none" fill-rule="evenodd">
        <g id="Artboard" transform="translate(-442.000000, -245.000000)">
            <g id="Group" transform="translate(442.000000, 245.000000)">
                <rect id="Rectangle" fill-opacity="0" fill="#D8D8D8" x="0" y="0" width="20" height="20"></rect>
                <circle id="Oval" fill="#666666" cx="10" cy="10" r="10"></circle>
                <path d="M15.2018856,11.1994858 L14.2314613,11.1994858 C14.1398213,11.5262574 14.0103561,11.841222 13.8456919,12.1379901 L14.5263606,12.818513 C14.677284,12.9692977 14.7620809,13.1738696 14.7620809,13.3871866 C14.7620809,13.6005037 14.677284,13.8050756 14.5263606,13.9558603 L13.9579937,14.5241054 C13.8071766,14.6749965 13.602561,14.7597752 13.3891982,14.7597752 C13.1758354,14.7597752 12.9712197,14.6749965 12.8204027,14.5241054 L12.1405913,13.8444397 C11.8437258,14.0089982 11.5287021,14.1384323 11.2018859,14.2301264 L11.2018859,15.2003428 C11.2018859,15.6419813 10.8437905,16 10.4020574,16 L9.60051438,16 C9.15878131,16 8.8006859,15.6419813 8.8006859,15.2003428 L8.8006859,14.2292693 C8.46237984,14.1339553 8.13683172,13.9981235 7.83111889,13.8247268 L7.13159044,14.5241054 C6.9807734,14.6749965 6.77615771,14.7597752 6.56279495,14.7597752 C6.34943218,14.7597752 6.1448165,14.6749965 5.99399945,14.5241054 L5.42563258,13.9558603 C5.27470913,13.8050756 5.18991227,13.6005037 5.18991227,13.3871866 C5.18991227,13.1738696 5.27470913,12.9692977 5.42563258,12.818513 L6.13716275,12.1071352 C5.98131024,11.8195479 5.85823663,11.5153798 5.77025322,11.2003428 L4.79982894,11.2003428 C4.58755263,11.200343 4.3839831,11.115976 4.23396149,10.9658257 C4.08393989,10.8156755 3.99977294,10.6120593 4.00000046,10.3998286 L4.00000046,9.59931433 C4.00000046,9.15767588 4.35809587,8.79965717 4.79982894,8.79965717 L5.77025322,8.79965717 C5.8620296,8.47320578 5.99149002,8.15854053 6.15602258,7.86200986 L5.42563258,7.1317763 C5.27470913,6.98099156 5.18991227,6.7764197 5.18991227,6.56310264 C5.18991227,6.34978557 5.27470913,6.14521371 5.42563258,5.99442897 L5.99399945,5.42618384 C6.1448165,5.27529272 6.34943218,5.19051403 6.56279495,5.19051403 C6.77615771,5.19051403 6.9807734,5.27529272 7.13159044,5.42618384 L7.86198044,6.1564174 C8.15884598,5.99185886 8.47386967,5.8624248 8.8006859,5.77073066 L8.8006859,4.79965717 C8.8006859,4.5875749 8.8849533,4.38417897 9.03495024,4.23421416 C9.18494718,4.08424935 9.38838668,4 9.60051438,4 L10.4003429,4 C10.8420759,4 11.2001714,4.35801871 11.2001714,4.79965717 L11.2001714,5.76987358 C11.5152595,5.85788601 11.8194876,5.98093113 12.107158,6.13670452 L12.8186882,5.42532676 C12.9695052,5.27443564 13.1741209,5.18965694 13.3874837,5.18965694 C13.6008464,5.18965694 13.8054621,5.27443564 13.9562792,5.42532676 L14.524646,5.99357189 C14.6755695,6.14435663 14.7603663,6.34892849 14.7603663,6.56224555 C14.7603663,6.77556262 14.6755695,6.98013448 14.524646,7.13091922 L13.8251176,7.83029784 C13.9984762,8.13598202 14.1343333,8.4614511 14.2297468,8.79965717 L15.200171,8.79965717 C15.6419041,8.79965717 15.9999995,9.15767588 15.9999995,9.59931433 L15.9999995,10.3989715 C16.0004736,10.8402759 15.6432838,11.19854 15.2018856,11.1994858 Z M10.0008573,7.59974288 C8.67518458,7.59974288 7.60051454,8.67418273 7.60051454,9.99957146 C7.60051454,11.3249602 8.67518458,12.3994 10.0008573,12.3994 C11.3265299,12.3994 12.4012,11.3249602 12.4012,9.99957146 C12.4012,8.67418273 11.3265299,7.59974288 10.0008573,7.59974288 Z" id="gear_copy_2" fill="#FFFFFF"></path>
            </g>
        </g>
    </g>
</svg>